<svg xmlns="http://www.w3.org/2000/svg" xmlns:xlink="http://www.w3.org/1999/xlink" version="1.1" class="marks" width="364" height="347" viewBox="0 0 364 347"><rect width="364" height="347" fill="white"/><g fill="none" stroke-miterlimit="10" transform="translate(58,10)"><g class="mark-group role-frame root" role="graphics-object" aria-roledescription="group mark container"><g transform="translate(0,0)"><path class="background" aria-hidden="true" d="M0.5,0.5h300v300h-300Z" stroke="#ddd"/><g><g class="mark-group role-axis" aria-hidden="true"><g transform="translate(0.5,300.5)"><path class="background" aria-hidden="true" d="M0,0h0v0h0Z" pointer-events="none"/><g><g class="mark-rule role-axis-grid" pointer-events="none"><line transform="translate(0,-300)" x2="0" y2="300" stroke="#ddd" stroke-width="1" opacity="1"/><line transform="translate(33,-300)" x2="0" y2="300" stroke="#ddd" stroke-width="1" opacity="1"/><line transform="translate(67,-300)" x2="0" y2="300" stroke="#ddd" stroke-width="1" opacity="1"/><line transform="translate(100,-300)" x2="0" y2="300" stroke="#ddd" stroke-width="1" opacity="1"/><line transform="translate(133,-300)" x2="0" y2="300" stroke="#ddd" stroke-width="1" opacity="1"/><line transform="translate(167,-300)" x2="0" y2="300" stroke="#ddd" stroke-width="1" opacity="1"/><line transform="translate(200,-300)" x2="0" y2="300" stroke="#ddd" stroke-width="1" opacity="1"/><line transform="translate(233,-300)" x2="0" y2="300" stroke="#ddd" stroke-width="1" opacity="1"/><line transform="translate(267,-300)" x2="0" y2="300" stroke="#ddd" stroke-width="1" opacity="1"/><line transform="translate(300,-300)" x2="0" y2="300" stroke="#ddd" stroke-width="1" opacity="1"/></g></g><path class="foreground" aria-hidden="true" d="" pointer-events="none" display="none"/></g></g><g class="mark-group role-axis" aria-hidden="true"><g transform="translate(0.5,0.5)"><path class="background" aria-hidden="true" d="M0,0h0v0h0Z" pointer-events="none"/><g><g class="mark-rule role-axis-grid" pointer-events="none"><line transform="translate(0,300)" x2="300" y2="0" stroke="#ddd" stroke-width="1" opacity="1"/><line transform="translate(0,250)" x2="300" y2="0" stroke="#ddd" stroke-width="1" opacity="1"/><line transform="translate(0,200)" x2="300" y2="0" stroke="#ddd" stroke-width="1" opacity="1"/><line transform="translate(0,150)" x2="300" y2="0" stroke="#ddd" stroke-width="1" opacity="1"/><line transform="translate(0,100)" x2="300" y2="0" stroke="#ddd" stroke-width="1" opacity="1"/><line transform="translate(0,50)" x2="300" y2="0" stroke="#ddd" stroke-width="1" opacity="1"/><line transform="translate(0,0)" x2="300" y2="0" stroke="#ddd" stroke-width="1" opacity="1"/></g></g><path class="foreground" aria-hidden="true" d="" pointer-events="none" display="none"/></g></g><g class="mark-group role-axis" role="graphics-symbol" aria-roledescription="axis" aria-label="X-axis titled 'Seconds elapsed' for a linear scale with values from 0 to 1,800"><g transform="translate(0.5,300.5)"><path class="background" aria-hidden="true" d="M0,0h0v0h0Z" pointer-events="none"/><g><g class="mark-rule role-axis-tick" pointer-events="none"><line transform="translate(0,0)" x2="0" y2="5" stroke="#888" stroke-width="1" opacity="1"/><line transform="translate(33,0)" x2="0" y2="5" stroke="#888" stroke-width="1" opacity="1"/><line transform="translate(67,0)" x2="0" y2="5" stroke="#888" stroke-width="1" opacity="1"/><line transform="translate(100,0)" x2="0" y2="5" stroke="#888" stroke-width="1" opacity="1"/><line transform="translate(133,0)" x2="0" y2="5" stroke="#888" stroke-width="1" opacity="1"/><line transform="translate(167,0)" x2="0" y2="5" stroke="#888" stroke-width="1" opacity="1"/><line transform="translate(200,0)" x2="0" y2="5" stroke="#888" stroke-width="1" opacity="1"/><line transform="translate(233,0)" x2="0" y2="5" stroke="#888" stroke-width="1" opacity="1"/><line transform="translate(267,0)" x2="0" y2="5" stroke="#888" stroke-width="1" opacity="1"/><line transform="translate(300,0)" x2="0" y2="5" stroke="#888" stroke-width="1" opacity="1"/></g><g class="mark-text role-axis-label" pointer-events="none"><text text-anchor="start" transform="translate(0,15)" font-family="sans-serif" font-size="10px" fill="#000" opacity="1">0</text><text text-anchor="middle" transform="translate(33.33333333333333,15)" font-family="sans-serif" font-size="10px" fill="#000" opacity="0">200</text><text text-anchor="middle" transform="translate(66.66666666666666,15)" font-family="sans-serif" font-size="10px" fill="#000" opacity="1">400</text><text text-anchor="middle" transform="translate(100,15)" font-family="sans-serif" font-size="10px" fill="#000" opacity="0">600</text><text text-anchor="middle" transform="translate(133.33333333333331,15)" font-family="sans-serif" font-size="10px" fill="#000" opacity="1">800</text><text text-anchor="middle" transform="translate(166.66666666666669,15)" font-family="sans-serif" font-size="10px" fill="#000" opacity="0">1,000</text><text text-anchor="middle" transform="translate(200,15)" font-family="sans-serif" font-size="10px" fill="#000" opacity="1">1,200</text><text text-anchor="middle" transform="translate(233.33333333333334,15)" font-family="sans-serif" font-size="10px" fill="#000" opacity="0">1,400</text><text text-anchor="middle" transform="translate(266.66666666666663,15)" font-family="sans-serif" font-size="10px" fill="#000" opacity="1">1,600</text><text text-anchor="end" transform="translate(300,15)" font-family="sans-serif" font-size="10px" fill="#000" opacity="0">1,800</text></g><g class="mark-rule role-axis-domain" pointer-events="none"><line transform="translate(0,0)" x2="300" y2="0" stroke="#888" stroke-width="1" opacity="1"/></g><g class="mark-text role-axis-title" pointer-events="none"><text text-anchor="middle" transform="translate(150,30)" font-family="sans-serif" font-size="11px" font-weight="bold" fill="#000" opacity="1">Seconds elapsed</text></g></g><path class="foreground" aria-hidden="true" d="" pointer-events="none" display="none"/></g></g><g class="mark-group role-axis" role="graphics-symbol" aria-roledescription="axis" aria-label="Y-axis titled 'Power reading (mW)' for a linear scale with values from 0 to 30,000"><g transform="translate(0.5,0.5)"><path class="background" aria-hidden="true" d="M0,0h0v0h0Z" pointer-events="none"/><g><g class="mark-rule role-axis-tick" pointer-events="none"><line transform="translate(0,300)" x2="-5" y2="0" stroke="#888" stroke-width="1" opacity="1"/><line transform="translate(0,250)" x2="-5" y2="0" stroke="#888" stroke-width="1" opacity="1"/><line transform="translate(0,200)" x2="-5" y2="0" stroke="#888" stroke-width="1" opacity="1"/><line transform="translate(0,150)" x2="-5" y2="0" stroke="#888" stroke-width="1" opacity="1"/><line transform="translate(0,100)" x2="-5" y2="0" stroke="#888" stroke-width="1" opacity="1"/><line transform="translate(0,50)" x2="-5" y2="0" stroke="#888" stroke-width="1" opacity="1"/><line transform="translate(0,0)" x2="-5" y2="0" stroke="#888" stroke-width="1" opacity="1"/></g><g class="mark-text role-axis-label" pointer-events="none"><text text-anchor="end" transform="translate(-7,303)" font-family="sans-serif" font-size="10px" fill="#000" opacity="1">0</text><text text-anchor="end" transform="translate(-7,253)" font-family="sans-serif" font-size="10px" fill="#000" opacity="1">5,000</text><text text-anchor="end" transform="translate(-7,203.00000000000003)" font-family="sans-serif" font-size="10px" fill="#000" opacity="1">10,000</text><text text-anchor="end" transform="translate(-7,153)" font-family="sans-serif" font-size="10px" fill="#000" opacity="1">15,000</text><text text-anchor="end" transform="translate(-7,103.00000000000001)" font-family="sans-serif" font-size="10px" fill="#000" opacity="1">20,000</text><text text-anchor="end" transform="translate(-7,52.999999999999986)" font-family="sans-serif" font-size="10px" fill="#000" opacity="1">25,000</text><text text-anchor="end" transform="translate(-7,3)" font-family="sans-serif" font-size="10px" fill="#000" opacity="1">30,000</text></g><g class="mark-rule role-axis-domain" pointer-events="none"><line transform="translate(0,300)" x2="0" y2="-300" stroke="#888" stroke-width="1" opacity="1"/></g><g class="mark-text role-axis-title" pointer-events="none"><text text-anchor="middle" transform="translate(-41.5859375,150) rotate(-90) translate(0,-2)" font-family="sans-serif" font-size="11px" font-weight="bold" fill="#000" opacity="1">Power reading (mW)</text></g></g><path class="foreground" aria-hidden="true" d="" pointer-events="none" display="none"/></g></g><g class="mark-line role-mark marks" role="graphics-object" aria-roledescription="line mark container"><path aria-label="Seconds elapsed: 0; Power reading (mW): 3240" role="graphics-symbol" aria-roledescription="line mark" d="M0,267.6L1.333,274.779L2.667,273.415L4,275.174L5.333,274.885L6.667,274.3L8,274.79L9.333,274.108L10.667,275.683L12,274.938L13.333,275.194L14.667,274.342L16,275.674L17.333,273.723L18.667,273.66L20,276.078L21.333,275.162L22.667,275.322L24,274.383L25.333,275.492L26.667,274.48L28,275.652L29.333,274.64L30.667,274.713L32,275.822L33.333,274.883L34.667,274.747L36,274.883L37.333,275.992L38.667,274.98L40,273.808L41.333,275.992L42.667,274.98L44,274.98L45.333,274.98L46.667,274.98L48,274.98L49.333,274.98L50.667,276.225L52,273.978L53.333,274.99L54.667,274.99L56,274.99L57.333,274.99L58.667,276.162L60,273.978L61.333,275.063L62.667,275L64,276.172L65.333,275.16L66.667,275.233L68,275.097L69.333,275.16L70.667,275.233L72,273.925L73.333,275L74.667,276.245L76,275.17L77.333,273.925L78.667,275.073L80,276.182L81.333,273.998L82.667,275.01L84,275.01L85.333,275.01L86.667,275.01L88,275.083L89.333,274.947L90.667,276.182L92,275.243L93.333,275.18L94.667,275.18L96,274.008L97.333,275.02L98.667,275.02L100,275.02L101.333,180.002L102.667,8.057L104,194.706L105.333,191.345L106.667,190.185L108,189.895L109.333,190.9L110.667,189.356L112,189.593L113.333,190.367L114.667,191.477L116,189.471L117.333,190.389L118.667,197.79L120,188.999L121.333,191.462L122.667,189.59L124,191.074L125.333,190.461L126.667,191.376L128,190.293L129.333,189.77L130.667,188.577L132,190.948L133.333,190.641L134.667,189.729L136,189.229L137.333,189.505L138.667,188.762L140,190.294L141.333,189.658L142.667,189.894L144,189.228L145.333,189.727L146.667,188.705L148,189.604L149.333,188.821L150.667,189.917L152,188.252L153.333,188.554L154.667,188.268L156,189.06L157.333,188.224L158.667,188.084L160,188.897L161.333,189.033L162.667,187.358L164,188.823L165.333,189.639L166.667,189.027L168,188.9L169.333,187.508L170.667,188.417L172,188.45L173.333,188.86L174.667,188.67L176,188.377L177.333,187.311L178.667,188.963L180,188.3L181.333,187.464L182.667,188.423L184,188.36L185.333,189.752L186.667,189.502L188,186.995L189.333,188.45L190.667,192.846L192,185.387L193.333,188.55L194.667,188.623L196,188.34L197.333,188.677L198.667,189.795L200,187.548L201.333,211.197L202.667,273.042L204,273.016L205.333,273.449L206.667,273.364L208,274.913L209.333,274.3L210.667,273.899L212,273.871L213.333,274.301L214.667,274.388L216,273.858L217.333,257.6L218.667,275.256L220,274.222L221.333,274.844L222.667,274.406L224,274.621L225.333,274.665L226.667,274.686L228,274.411L229.333,275.284L230.667,273.676L232,275.402L233.333,274.806L234.667,274.114L236,275.606L237.333,274.988L238.667,274.145L240,274.169L241.333,274.392L242.667,273.38L244,274.552L245.333,274.712L246.667,274.945L248,274.969L249.333,275.339L250.667,272.881L252,275.265L253.333,275.289L254.667,274.413L256,275.522L257.333,274.583L258.667,275.619L260,274.67L261.333,273.571L262.667,275.619L264,274.67L265.333,275.842L266.667,274.83L268,274.83L269.333,274.83L270.667,274.977L272,275.949L273.333,273.755L274.667,274.83L276,274.83L277.333,274.83L278.667,276.075L280,275.073L281.333,274.937L282.667,275L284,275L285.333,273.828L286.667,274.84L288,274.767L289.333,276.075L290.667,275L292,275L293.333,275L294.667,275L296,275L297.333,273.828L298.667,276.012" stroke="#4c78a8" stroke-width="2"/></g></g><path class="foreground" aria-hidden="true" d="" display="none"/></g></g></g></svg>