<svg xmlns="http://www.w3.org/2000/svg" xmlns:xlink="http://www.w3.org/1999/xlink" version="1.1" class="marks" width="364" height="347" viewBox="0 0 364 347"><rect width="364" height="347" fill="white"/><g fill="none" stroke-miterlimit="10" transform="translate(58,10)"><g class="mark-group role-frame root" role="graphics-object" aria-roledescription="group mark container"><g transform="translate(0,0)"><path class="background" aria-hidden="true" d="M0.5,0.5h300v300h-300Z" stroke="#ddd"/><g><g class="mark-group role-axis" aria-hidden="true"><g transform="translate(0.5,300.5)"><path class="background" aria-hidden="true" d="M0,0h0v0h0Z" pointer-events="none"/><g><g class="mark-rule role-axis-grid" pointer-events="none"><line transform="translate(0,-300)" x2="0" y2="300" stroke="#ddd" stroke-width="1" opacity="1"/><line transform="translate(33,-300)" x2="0" y2="300" stroke="#ddd" stroke-width="1" opacity="1"/><line transform="translate(67,-300)" x2="0" y2="300" stroke="#ddd" stroke-width="1" opacity="1"/><line transform="translate(100,-300)" x2="0" y2="300" stroke="#ddd" stroke-width="1" opacity="1"/><line transform="translate(133,-300)" x2="0" y2="300" stroke="#ddd" stroke-width="1" opacity="1"/><line transform="translate(167,-300)" x2="0" y2="300" stroke="#ddd" stroke-width="1" opacity="1"/><line transform="translate(200,-300)" x2="0" y2="300" stroke="#ddd" stroke-width="1" opacity="1"/><line transform="translate(233,-300)" x2="0" y2="300" stroke="#ddd" stroke-width="1" opacity="1"/><line transform="translate(267,-300)" x2="0" y2="300" stroke="#ddd" stroke-width="1" opacity="1"/><line transform="translate(300,-300)" x2="0" y2="300" stroke="#ddd" stroke-width="1" opacity="1"/></g></g><path class="foreground" aria-hidden="true" d="" pointer-events="none" display="none"/></g></g><g class="mark-group role-axis" aria-hidden="true"><g transform="translate(0.5,0.5)"><path class="background" aria-hidden="true" d="M0,0h0v0h0Z" pointer-events="none"/><g><g class="mark-rule role-axis-grid" pointer-events="none"><line transform="translate(0,300)" x2="300" y2="0" stroke="#ddd" stroke-width="1" opacity="1"/><line transform="translate(0,250)" x2="300" y2="0" stroke="#ddd" stroke-width="1" opacity="1"/><line transform="translate(0,200)" x2="300" y2="0" stroke="#ddd" stroke-width="1" opacity="1"/><line transform="translate(0,150)" x2="300" y2="0" stroke="#ddd" stroke-width="1" opacity="1"/><line transform="translate(0,100)" x2="300" y2="0" stroke="#ddd" stroke-width="1" opacity="1"/><line transform="translate(0,50)" x2="300" y2="0" stroke="#ddd" stroke-width="1" opacity="1"/><line transform="translate(0,0)" x2="300" y2="0" stroke="#ddd" stroke-width="1" opacity="1"/></g></g><path class="foreground" aria-hidden="true" d="" pointer-events="none" display="none"/></g></g><g class="mark-group role-axis" role="graphics-symbol" aria-roledescription="axis" aria-label="X-axis titled 'Seconds elapsed' for a linear scale with values from 0 to 1,800"><g transform="translate(0.5,300.5)"><path class="background" aria-hidden="true" d="M0,0h0v0h0Z" pointer-events="none"/><g><g class="mark-rule role-axis-tick" pointer-events="none"><line transform="translate(0,0)" x2="0" y2="5" stroke="#888" stroke-width="1" opacity="1"/><line transform="translate(33,0)" x2="0" y2="5" stroke="#888" stroke-width="1" opacity="1"/><line transform="translate(67,0)" x2="0" y2="5" stroke="#888" stroke-width="1" opacity="1"/><line transform="translate(100,0)" x2="0" y2="5" stroke="#888" stroke-width="1" opacity="1"/><line transform="translate(133,0)" x2="0" y2="5" stroke="#888" stroke-width="1" opacity="1"/><line transform="translate(167,0)" x2="0" y2="5" stroke="#888" stroke-width="1" opacity="1"/><line transform="translate(200,0)" x2="0" y2="5" stroke="#888" stroke-width="1" opacity="1"/><line transform="translate(233,0)" x2="0" y2="5" stroke="#888" stroke-width="1" opacity="1"/><line transform="translate(267,0)" x2="0" y2="5" stroke="#888" stroke-width="1" opacity="1"/><line transform="translate(300,0)" x2="0" y2="5" stroke="#888" stroke-width="1" opacity="1"/></g><g class="mark-text role-axis-label" pointer-events="none"><text text-anchor="start" transform="translate(0,15)" font-family="sans-serif" font-size="10px" fill="#000" opacity="1">0</text><text text-anchor="middle" transform="translate(33.33333333333333,15)" font-family="sans-serif" font-size="10px" fill="#000" opacity="0">200</text><text text-anchor="middle" transform="translate(66.66666666666666,15)" font-family="sans-serif" font-size="10px" fill="#000" opacity="1">400</text><text text-anchor="middle" transform="translate(100,15)" font-family="sans-serif" font-size="10px" fill="#000" opacity="0">600</text><text text-anchor="middle" transform="translate(133.33333333333331,15)" font-family="sans-serif" font-size="10px" fill="#000" opacity="1">800</text><text text-anchor="middle" transform="translate(166.66666666666669,15)" font-family="sans-serif" font-size="10px" fill="#000" opacity="0">1,000</text><text text-anchor="middle" transform="translate(200,15)" font-family="sans-serif" font-size="10px" fill="#000" opacity="1">1,200</text><text text-anchor="middle" transform="translate(233.33333333333334,15)" font-family="sans-serif" font-size="10px" fill="#000" opacity="0">1,400</text><text text-anchor="middle" transform="translate(266.66666666666663,15)" font-family="sans-serif" font-size="10px" fill="#000" opacity="1">1,600</text><text text-anchor="end" transform="translate(300,15)" font-family="sans-serif" font-size="10px" fill="#000" opacity="0">1,800</text></g><g class="mark-rule role-axis-domain" pointer-events="none"><line transform="translate(0,0)" x2="300" y2="0" stroke="#888" stroke-width="1" opacity="1"/></g><g class="mark-text role-axis-title" pointer-events="none"><text text-anchor="middle" transform="translate(150,30)" font-family="sans-serif" font-size="11px" font-weight="bold" fill="#000" opacity="1">Seconds elapsed</text></g></g><path class="foreground" aria-hidden="true" d="" pointer-events="none" display="none"/></g></g><g class="mark-group role-axis" role="graphics-symbol" aria-roledescription="axis" aria-label="Y-axis titled 'Power reading (mW)' for a linear scale with values from 0 to 12,000"><g transform="translate(0.5,0.5)"><path class="background" aria-hidden="true" d="M0,0h0v0h0Z" pointer-events="none"/><g><g class="mark-rule role-axis-tick" pointer-events="none"><line transform="translate(0,300)" x2="-5" y2="0" stroke="#888" stroke-width="1" opacity="1"/><line transform="translate(0,250)" x2="-5" y2="0" stroke="#888" stroke-width="1" opacity="1"/><line transform="translate(0,200)" x2="-5" y2="0" stroke="#888" stroke-width="1" opacity="1"/><line transform="translate(0,150)" x2="-5" y2="0" stroke="#888" stroke-width="1" opacity="1"/><line transform="translate(0,100)" x2="-5" y2="0" stroke="#888" stroke-width="1" opacity="1"/><line transform="translate(0,50)" x2="-5" y2="0" stroke="#888" stroke-width="1" opacity="1"/><line transform="translate(0,0)" x2="-5" y2="0" stroke="#888" stroke-width="1" opacity="1"/></g><g class="mark-text role-axis-label" pointer-events="none"><text text-anchor="end" transform="translate(-7,303)" font-family="sans-serif" font-size="10px" fill="#000" opacity="1">0</text><text text-anchor="end" transform="translate(-7,253)" font-family="sans-serif" font-size="10px" fill="#000" opacity="1">2,000</text><text text-anchor="end" transform="translate(-7,203.00000000000003)" font-family="sans-serif" font-size="10px" fill="#000" opacity="1">4,000</text><text text-anchor="end" transform="translate(-7,153)" font-family="sans-serif" font-size="10px" fill="#000" opacity="1">6,000</text><text text-anchor="end" transform="translate(-7,103.00000000000001)" font-family="sans-serif" font-size="10px" fill="#000" opacity="1">8,000</text><text text-anchor="end" transform="translate(-7,52.999999999999986)" font-family="sans-serif" font-size="10px" fill="#000" opacity="1">10,000</text><text text-anchor="end" transform="translate(-7,3)" font-family="sans-serif" font-size="10px" fill="#000" opacity="1">12,000</text></g><g class="mark-rule role-axis-domain" pointer-events="none"><line transform="translate(0,300)" x2="0" y2="-300" stroke="#888" stroke-width="1" opacity="1"/></g><g class="mark-text role-axis-title" pointer-events="none"><text text-anchor="middle" transform="translate(-41.5859375,150) rotate(-90) translate(0,-2)" font-family="sans-serif" font-size="11px" font-weight="bold" fill="#000" opacity="1">Power reading (mW)</text></g></g><path class="foreground" aria-hidden="true" d="" pointer-events="none" display="none"/></g></g><g class="mark-line role-mark layer_0_marks" role="graphics-object" aria-roledescription="line mark container"><path aria-label="t: 0; p: 2500" role="graphics-symbol" aria-roledescription="line mark" d="M0,237.5L1.333,237.5L2.667,237.5L4,237.5L5.333,237.5L6.667,237.5L8,237.5L9.333,237.5L10.667,237.5L12,237.5L13.333,237.5L14.667,237.5L16,237.5L17.333,237.5L18.667,237.5L20,237.5L21.333,237.5L22.667,237.5L24,237.5L25.333,237.5L26.667,237.5L28,237.5L29.333,237.5L30.667,237.5L32,237.5L33.333,237.5L34.667,237.5L36,237.5L37.333,237.5L38.667,237.5L40,237.5L41.333,237.5L42.667,237.5L44,237.5L45.333,237.5L46.667,237.5L48,237.5L49.333,237.5L50.667,237.5L52,237.5L53.333,237.5L54.667,237.5L56,237.5L57.333,237.5L58.667,237.5L60,237.5L61.333,237.5L62.667,237.5L64,237.5L65.333,237.5L66.667,237.5L68,237.5L69.333,237.5L70.667,237.5L72,237.5L73.333,237.5L74.667,237.5L76,237.5L77.333,237.5L78.667,237.5L80,237.5L81.333,237.5L82.667,237.5L84,237.5L85.333,237.5L86.667,237.5L88,237.5L89.333,237.5L90.667,237.5L92,237.5L93.333,237.5L94.667,237.5L96,237.5L97.333,237.5L98.667,237.5L100,21.5L101.333,21.5L102.667,21.5L104,21.5L105.333,21.5L106.667,21.5L108,21.5L109.333,21.5L110.667,21.5L112,21.5L113.333,21.5L114.667,21.5L116,21.5L117.333,21.5L118.667,21.5L120,21.5L121.333,21.5L122.667,21.5L124,21.5L125.333,21.5L126.667,21.5L128,21.5L129.333,21.5L130.667,21.5L132,21.5L133.333,21.5L134.667,21.5L136,21.5L137.333,21.5L138.667,21.5L140,21.5L141.333,21.5L142.667,21.5L144,21.5L145.333,21.5L146.667,21.5L148,21.5L149.333,21.5L150.667,21.5L152,21.5L153.333,21.5L154.667,21.5L156,21.5L157.333,21.5L158.667,21.5L160,21.5L161.333,21.5L162.667,21.5L164,21.5L165.333,21.5L166.667,21.5L168,21.5L169.333,21.5L170.667,21.5L172,21.5L173.333,21.5L174.667,21.5L176,21.5L177.333,21.5L178.667,21.5L180,21.5L181.333,21.5L182.667,21.5L184,21.5L185.333,21.5L186.667,21.5L188,21.5L189.333,21.5L190.667,21.5L192,21.5L193.333,21.5L194.667,21.5L196,21.5L197.333,21.5L198.667,21.5L200,21.5L201.333,237.5L202.667,237.5L204,237.5L205.333,237.5L206.667,237.5L208,237.5L209.333,237.5L210.667,237.5L212,237.5L213.333,237.5L214.667,237.5L216,237.5L217.333,237.5L218.667,237.5L220,237.5L221.333,237.5L222.667,237.5L224,237.5L225.333,237.5L226.667,237.5L228,237.5L229.333,237.5L230.667,237.5L232,237.5L233.333,237.5L234.667,237.5L236,237.5L237.333,237.5L238.667,237.5L240,237.5L241.333,237.5L242.667,237.5L244,237.5L245.333,237.5L246.667,237.5L248,237.5L249.333,237.5L250.667,237.5L252,237.5L253.333,237.5L254.667,237.5L256,237.5L257.333,237.5L258.667,237.5L260,237.5L261.333,237.5L262.667,237.5L264,237.5L265.333,237.5L266.667,237.5L268,237.5L269.333,237.5L270.667,237.5L272,237.5L273.333,237.5L274.667,237.5L276,237.5L277.333,237.5L278.667,237.5L280,237.5L281.333,237.5L282.667,237.5L284,237.5L285.333,237.5L286.667,237.5L288,237.5L289.333,237.5L290.667,237.5L292,237.5L293.333,237.5L294.667,237.5L296,237.5L297.333,237.5L298.667,237.5" stroke="orange" stroke-width="2"/></g><g class="mark-line role-mark layer_1_marks" role="graphics-object" aria-roledescription="line mark container"><path aria-label="Seconds elapsed: 0; Power reading (mW): 3240" role="graphics-symbol" aria-roledescription="line mark" d="M0,219L1.334,221.45L2.668,223.1L4.003,225.125L5.338,226.775L6.673,228L8.007,229.225L9.342,230.05L10.677,231.3L12.012,232.125L13.346,232.925L14.681,233.325L16.016,234.125L17.351,234.15L18.685,234.15L20.02,234.975L21.355,235.375L22.69,235.775L24.024,235.8L25.359,236.2L26.694,236.2L28.028,236.6L29.363,236.6L30.698,236.625L32.033,237.025L33.367,237.05L34.702,237.025L36.037,237.05L37.371,237.45L38.706,237.45L40.041,237.05L41.375,237.45L42.71,237.45L44.045,237.45L45.38,237.45L46.714,237.45L48.049,237.45L49.384,237.45L50.719,237.875L52.053,237.475L53.388,237.475L54.723,237.475L56.057,237.475L57.392,237.475L58.727,237.875L60.062,237.475L61.396,237.5L62.731,237.5L64.066,237.9L65.4,237.9L66.735,237.925L68.07,237.9L69.404,237.9L70.739,237.925L72.074,237.5L73.409,237.5L74.743,237.925L76.078,237.925L77.412,237.5L78.747,237.525L80.082,237.925L81.417,237.525L82.751,237.525L84.086,237.525L85.421,237.525L86.756,237.525L88.09,237.55L89.425,237.525L90.76,237.925L92.095,237.95L93.429,237.95L94.764,237.95L96.099,237.55L97.434,237.55L98.768,237.55L100.103,237.55L101.439,205.125L102.773,118.45L104.108,107.3L105.442,96.525L106.777,86.825L108.111,78.35L109.446,71.375L110.78,64.825L112.115,59.25L113.45,54.7L114.784,51.15L116.119,47.4L117.453,44.475L118.788,44.475L120.122,41.475L121.457,39.725L122.792,37.575L124.126,36.225L125.461,34.85L126.795,33.975L128.13,32.85L129.464,31.7L130.799,30.3L132.133,29.9L133.468,29.45L134.803,28.75L136.137,27.975L137.472,27.4L138.806,26.65L140.141,26.525L141.475,26.2L142.81,26L144.144,25.6L145.479,25.425L146.813,24.925L148.148,24.8L149.482,24.425L150.817,24.475L152.152,23.95L153.486,23.6L154.821,23.2L156.155,23.125L157.49,22.775L158.824,22.425L160.159,22.4L161.493,22.425L162.828,21.875L164.163,21.9L165.497,22.2L166.832,22.25L168.166,22.25L169.501,21.775L170.835,21.675L172.17,21.6L173.504,21.675L174.839,21.675L176.174,21.575L177.508,21.125L178.843,21.3L180.177,21.225L181.512,20.875L182.846,20.9L184.181,20.9L185.516,21.375L186.85,21.7L188.185,21.125L189.519,21.125L190.854,22.625L192.188,21.375L193.523,21.375L194.857,21.4L196.192,21.325L197.526,21.375L198.861,21.8L200.196,21.4L201.53,29.125L202.865,56.9L204.2,80.875L205.535,101.725L206.87,119.7L208.204,135.75L209.539,149.4L210.874,161.05L212.208,171.1L213.543,179.925L214.878,187.575L216.212,194L217.547,194L218.882,200.025L220.217,204.875L221.551,209.275L222.886,212.925L224.221,216.15L225.556,218.95L226.89,221.375L228.225,223.375L229.56,225.4L230.894,226.6L232.229,228.225L233.564,229.425L234.899,230.225L236.233,231.425L237.568,232.25L238.903,232.675L240.237,233.05L241.572,233.45L242.907,233.45L244.242,233.85L245.576,234.25L246.911,234.675L248.246,235.05L249.58,235.5L250.915,235.05L252.25,235.475L253.585,235.85L254.919,235.875L256.254,236.275L257.589,236.3L258.924,236.675L260.258,236.675L261.593,236.3L262.928,236.675L264.263,236.675L265.597,237.075L266.932,237.075L268.267,237.075L269.601,237.075L270.936,237.125L272.271,237.5L273.605,237.075L274.94,237.075L276.275,237.075L277.61,237.075L278.945,237.5L280.279,237.525L281.614,237.5L282.949,237.5L284.284,237.5L285.618,237.1L286.953,237.1L288.288,237.075L289.623,237.5L290.957,237.5L292.292,237.5L293.627,237.5L294.961,237.5L296.296,237.5L297.631,237.1L298.966,237.5" stroke="#4c78a8" stroke-width="2"/></g></g><path class="foreground" aria-hidden="true" d="" display="none"/></g></g></g></svg>