<svg xmlns="http://www.w3.org/2000/svg" xmlns:xlink="http://www.w3.org/1999/xlink" version="1.1" class="marks" width="597" height="247" viewBox="0 0 597 247"><rect width="597" height="247" fill="white"/><g fill="none" stroke-miterlimit="10" transform="translate(53,10)"><g class="mark-group role-frame root" role="graphics-object" aria-roledescription="group mark container"><g transform="translate(0,0)"><path class="background" aria-hidden="true" d="M0.5,0.5h500v200h-500Z" stroke="#ddd"/><g><g class="mark-group role-axis" aria-hidden="true"><g transform="translate(0.5,200.5)"><path class="background" aria-hidden="true" d="M0,0h0v0h0Z" pointer-events="none"/><g><g class="mark-rule role-axis-grid" pointer-events="none"><line transform="translate(0,-200)" x2="0" y2="200" stroke="#ddd" stroke-width="1" opacity="1"/><line transform="translate(42,-200)" x2="0" y2="200" stroke="#ddd" stroke-width="1" opacity="1"/><line transform="translate(83,-200)" x2="0" y2="200" stroke="#ddd" stroke-width="1" opacity="1"/><line transform="translate(125,-200)" x2="0" y2="200" stroke="#ddd" stroke-width="1" opacity="1"/><line transform="translate(167,-200)" x2="0" y2="200" stroke="#ddd" stroke-width="1" opacity="1"/><line transform="translate(208,-200)" x2="0" y2="200" stroke="#ddd" stroke-width="1" opacity="1"/><line transform="translate(250,-200)" x2="0" y2="200" stroke="#ddd" stroke-width="1" opacity="1"/><line transform="translate(292,-200)" x2="0" y2="200" stroke="#ddd" stroke-width="1" opacity="1"/><line transform="translate(333,-200)" x2="0" y2="200" stroke="#ddd" stroke-width="1" opacity="1"/><line transform="translate(375,-200)" x2="0" y2="200" stroke="#ddd" stroke-width="1" opacity="1"/><line transform="translate(417,-200)" x2="0" y2="200" stroke="#ddd" stroke-width="1" opacity="1"/><line transform="translate(458,-200)" x2="0" y2="200" stroke="#ddd" stroke-width="1" opacity="1"/><line transform="translate(500,-200)" x2="0" y2="200" stroke="#ddd" stroke-width="1" opacity="1"/></g></g><path class="foreground" aria-hidden="true" d="" pointer-events="none" display="none"/></g></g><g class="mark-group role-axis" aria-hidden="true"><g transform="translate(500.5,0.5)"><path class="background" aria-hidden="true" d="M0,0h0v0h0Z" pointer-events="none"/><g><g class="mark-rule role-axis-grid" pointer-events="none"><line transform="translate(0,200)" x2="-500" y2="0" stroke="#ddd" stroke-width="1" opacity="1"/><line transform="translate(0,160)" x2="-500" y2="0" stroke="#ddd" stroke-width="1" opacity="1"/><line transform="translate(0,120)" x2="-500" y2="0" stroke="#ddd" stroke-width="1" opacity="1"/><line transform="translate(0,80)" x2="-500" y2="0" stroke="#ddd" stroke-width="1" opacity="1"/><line transform="translate(0,40)" x2="-500" y2="0" stroke="#ddd" stroke-width="1" opacity="1"/><line transform="translate(0,0)" x2="-500" y2="0" stroke="#ddd" stroke-width="1" opacity="1"/></g></g><path class="foreground" aria-hidden="true" d="" pointer-events="none" display="none"/></g></g><g class="mark-group role-axis" role="graphics-symbol" aria-roledescription="axis" aria-label="X-axis titled 'Time (seconds)' for a linear scale with values from 0 to 6,000"><g transform="translate(0.5,200.5)"><path class="background" aria-hidden="true" d="M0,0h0v0h0Z" pointer-events="none"/><g><g class="mark-rule role-axis-tick" pointer-events="none"><line transform="translate(0,0)" x2="0" y2="5" stroke="#888" stroke-width="1" opacity="1"/><line transform="translate(42,0)" x2="0" y2="5" stroke="#888" stroke-width="1" opacity="1"/><line transform="translate(83,0)" x2="0" y2="5" stroke="#888" stroke-width="1" opacity="1"/><line transform="translate(125,0)" x2="0" y2="5" stroke="#888" stroke-width="1" opacity="1"/><line transform="translate(167,0)" x2="0" y2="5" stroke="#888" stroke-width="1" opacity="1"/><line transform="translate(208,0)" x2="0" y2="5" stroke="#888" stroke-width="1" opacity="1"/><line transform="translate(250,0)" x2="0" y2="5" stroke="#888" stroke-width="1" opacity="1"/><line transform="translate(292,0)" x2="0" y2="5" stroke="#888" stroke-width="1" opacity="1"/><line transform="translate(333,0)" x2="0" y2="5" stroke="#888" stroke-width="1" opacity="1"/><line transform="translate(375,0)" x2="0" y2="5" stroke="#888" stroke-width="1" opacity="1"/><line transform="translate(417,0)" x2="0" y2="5" stroke="#888" stroke-width="1" opacity="1"/><line transform="translate(458,0)" x2="0" y2="5" stroke="#888" stroke-width="1" opacity="1"/><line transform="translate(500,0)" x2="0" y2="5" stroke="#888" stroke-width="1" opacity="1"/></g><g class="mark-text role-axis-label" pointer-events="none"><text text-anchor="start" transform="translate(0,15)" font-family="sans-serif" font-size="10px" fill="#000" opacity="1">0</text><text text-anchor="middle" transform="translate(41.666666666666664,15)" font-family="sans-serif" font-size="10px" fill="#000" opacity="1">500</text><text text-anchor="middle" transform="translate(83.33333333333333,15)" font-family="sans-serif" font-size="10px" fill="#000" opacity="1">1,000</text><text text-anchor="middle" transform="translate(125,15)" font-family="sans-serif" font-size="10px" fill="#000" opacity="1">1,500</text><text text-anchor="middle" transform="translate(166.66666666666666,15)" font-family="sans-serif" font-size="10px" fill="#000" opacity="1">2,000</text><text text-anchor="middle" transform="translate(208.33333333333334,15)" font-family="sans-serif" font-size="10px" fill="#000" opacity="1">2,500</text><text text-anchor="middle" transform="translate(250,15)" font-family="sans-serif" font-size="10px" fill="#000" opacity="1">3,000</text><text text-anchor="middle" transform="translate(291.6666666666667,15)" font-family="sans-serif" font-size="10px" fill="#000" opacity="1">3,500</text><text text-anchor="middle" transform="translate(333.3333333333333,15)" font-family="sans-serif" font-size="10px" fill="#000" opacity="1">4,000</text><text text-anchor="middle" transform="translate(375,15)" font-family="sans-serif" font-size="10px" fill="#000" opacity="1">4,500</text><text text-anchor="middle" transform="translate(416.6666666666667,15)" font-family="sans-serif" font-size="10px" fill="#000" opacity="1">5,000</text><text text-anchor="middle" transform="translate(458.3333333333333,15)" font-family="sans-serif" font-size="10px" fill="#000" opacity="1">5,500</text><text text-anchor="end" transform="translate(500,15)" font-family="sans-serif" font-size="10px" fill="#000" opacity="1">6,000</text></g><g class="mark-rule role-axis-domain" pointer-events="none"><line transform="translate(0,0)" x2="500" y2="0" stroke="#888" stroke-width="1" opacity="1"/></g><g class="mark-text role-axis-title" pointer-events="none"><text text-anchor="middle" transform="translate(250,30)" font-family="sans-serif" font-size="11px" font-weight="bold" fill="#000" opacity="1">Time (seconds)</text></g></g><path class="foreground" aria-hidden="true" d="" pointer-events="none" display="none"/></g></g><g class="mark-group role-axis" role="graphics-symbol" aria-roledescription="axis" aria-label="Y-axis titled 'Brightness %' for a linear scale with values from 0 to 100"><g transform="translate(500.5,0.5)"><path class="background" aria-hidden="true" d="M0,0h0v0h0Z" pointer-events="none"/><g><g class="mark-rule role-axis-tick" pointer-events="none"><line transform="translate(0,200)" x2="5" y2="0" stroke="#888" stroke-width="1" opacity="1"/><line transform="translate(0,160)" x2="5" y2="0" stroke="#888" stroke-width="1" opacity="1"/><line transform="translate(0,120)" x2="5" y2="0" stroke="#888" stroke-width="1" opacity="1"/><line transform="translate(0,80)" x2="5" y2="0" stroke="#888" stroke-width="1" opacity="1"/><line transform="translate(0,40)" x2="5" y2="0" stroke="#888" stroke-width="1" opacity="1"/><line transform="translate(0,0)" x2="5" y2="0" stroke="#888" stroke-width="1" opacity="1"/></g><g class="mark-text role-axis-label" pointer-events="none"><text text-anchor="start" transform="translate(7,203)" font-family="sans-serif" font-size="10px" fill="#000" opacity="1">0</text><text text-anchor="start" transform="translate(7,163)" font-family="sans-serif" font-size="10px" fill="#000" opacity="1">20</text><text text-anchor="start" transform="translate(7,123)" font-family="sans-serif" font-size="10px" fill="#000" opacity="1">40</text><text text-anchor="start" transform="translate(7,83)" font-family="sans-serif" font-size="10px" fill="#000" opacity="1">60</text><text text-anchor="start" transform="translate(7,42.99999999999999)" font-family="sans-serif" font-size="10px" fill="#000" opacity="1">80</text><text text-anchor="start" transform="translate(7,3)" font-family="sans-serif" font-size="10px" fill="#000" opacity="1">100</text></g><g class="mark-rule role-axis-domain" pointer-events="none"><line transform="translate(0,200)" x2="0" y2="-200" stroke="#888" stroke-width="1" opacity="1"/></g><g class="mark-text role-axis-title" pointer-events="none"><text text-anchor="middle" transform="translate(27.6845703125,100) rotate(90) translate(0,-2)" font-family="sans-serif" font-size="11px" font-weight="bold" fill="#000" opacity="1">Brightness %</text></g></g><path class="foreground" aria-hidden="true" d="" pointer-events="none" display="none"/></g></g><g class="mark-group role-axis" role="graphics-symbol" aria-roledescription="axis" aria-label="Y-axis titled 'Power reading (mW)' for a linear scale with values from 0 to 6,000"><g transform="translate(0.5,0.5)"><path class="background" aria-hidden="true" d="M0,0h0v0h0Z" pointer-events="none"/><g><g class="mark-rule role-axis-tick" pointer-events="none"><line transform="translate(0,200)" x2="-5" y2="0" stroke="#888" stroke-width="1" opacity="1"/><line transform="translate(0,167)" x2="-5" y2="0" stroke="#888" stroke-width="1" opacity="1"/><line transform="translate(0,133)" x2="-5" y2="0" stroke="#888" stroke-width="1" opacity="1"/><line transform="translate(0,100)" x2="-5" y2="0" stroke="#888" stroke-width="1" opacity="1"/><line transform="translate(0,67)" x2="-5" y2="0" stroke="#888" stroke-width="1" opacity="1"/><line transform="translate(0,33)" x2="-5" y2="0" stroke="#888" stroke-width="1" opacity="1"/><line transform="translate(0,0)" x2="-5" y2="0" stroke="#888" stroke-width="1" opacity="1"/></g><g class="mark-text role-axis-label" pointer-events="none"><text text-anchor="end" transform="translate(-7,203)" font-family="sans-serif" font-size="10px" fill="#000" opacity="1">0</text><text text-anchor="end" transform="translate(-7,169.66666666666669)" font-family="sans-serif" font-size="10px" fill="#000" opacity="1">1,000</text><text text-anchor="end" transform="translate(-7,136.33333333333334)" font-family="sans-serif" font-size="10px" fill="#000" opacity="1">2,000</text><text text-anchor="end" transform="translate(-7,103)" font-family="sans-serif" font-size="10px" fill="#000" opacity="1">3,000</text><text text-anchor="end" transform="translate(-7,69.66666666666667)" font-family="sans-serif" font-size="10px" fill="#000" opacity="1">4,000</text><text text-anchor="end" transform="translate(-7,36.33333333333333)" font-family="sans-serif" font-size="10px" fill="#000" opacity="1">5,000</text><text text-anchor="end" transform="translate(-7,3)" font-family="sans-serif" font-size="10px" fill="#000" opacity="1">6,000</text></g><g class="mark-rule role-axis-domain" pointer-events="none"><line transform="translate(0,200)" x2="0" y2="-200" stroke="#888" stroke-width="1" opacity="1"/></g><g class="mark-text role-axis-title" pointer-events="none"><text text-anchor="middle" transform="translate(-36.0244140625,100) rotate(-90) translate(0,-2)" font-family="sans-serif" font-size="11px" font-weight="bold" fill="#000" opacity="1">Power reading (mW)</text></g></g><path class="foreground" aria-hidden="true" d="" pointer-events="none" display="none"/></g></g><g class="mark-line role-mark layer_0_marks" role="graphics-object" aria-roledescription="line mark container"><path aria-label="Time (seconds): 10; Brightness %: 57" role="graphics-symbol" aria-roledescription="line mark" d="M0.833,86L1.667,86L2.5,86L3.333,86L4.167,86L5,86L5.833,86L6.667,86L7.5,86L8.333,86L9.167,86L10,86L10.833,162L11.667,162L12.5,162L13.333,162L14.167,162L15,162L15.833,162L16.667,162L17.5,162L18.333,162L19.167,162L20,162L20.833,54L21.667,54L22.5,54L23.333,54L24.167,54L25,54L25.833,54L26.667,54L27.5,54L28.333,54L29.167,54L30,54L30.833,190L31.667,190L32.5,190L33.333,190L34.167,190L35,190L35.833,190L36.667,190L37.5,190L38.333,190L39.167,190L40,190L40.833,198L41.667,198L42.5,198L43.333,198L44.167,198L45,198L45.833,198L46.667,198L47.5,198L48.333,198L49.167,198L50,198L50.833,66L51.667,66L52.5,66L53.333,66L54.167,66L55,66L55.833,66L56.667,66L57.5,66L58.333,66L59.167,66L60,66L60.833,64L61.667,64L62.5,64L63.333,64L64.167,64L65,64L65.833,64L66.667,64L67.5,64L68.333,64L69.167,64L70,64L70.833,188L71.667,188L72.5,188L73.333,188L74.167,188L75,188L75.833,188L76.667,188L77.5,188L78.333,188L79.167,188L80,188L80.833,38L81.667,38L82.5,38L83.333,38L84.167,38L85,38L85.833,38L86.667,38L87.5,38L88.333,38L89.167,38L90,38L90.833,166L91.667,166L92.5,166L93.333,166L94.167,166L95,166L95.833,166L96.667,166L97.5,166L98.333,166L99.167,166L100,166L100.833,138L101.667,138L102.5,138L103.333,138L104.167,138L105,138L105.833,138L106.667,138L107.5,138L108.333,138L109.167,138L110,138L110.833,116L111.667,116L112.5,116L113.333,116L114.167,116L115,116L115.833,116L116.667,116L117.5,116L118.333,116L119.167,116L120,116L120.833,96L121.667,96L122.5,96L123.333,96L124.167,96L125,96L125.833,96L126.667,96L127.5,96L128.333,96L129.167,96L130,96L130.833,8L131.667,8L132.5,8L133.333,8L134.167,8L135,8L135.833,8L136.667,8L137.5,8L138.333,8L139.167,8L140,8L140.833,74L141.667,74L142.5,74L143.333,74L144.167,74L145,74L145.833,74L146.667,74L147.5,74L148.333,74L149.167,74L150,74L150.833,114L151.667,114L152.5,114L153.333,114L154.167,114L155,114L155.833,114L156.667,114L157.5,114L158.333,114L159.167,114L160,114L160.833,156L161.667,156L162.5,156L163.333,156L164.167,156L165,156L165.833,156L166.667,156L167.5,156L168.333,156L169.167,156L170,156L170.833,22L171.667,22L172.5,22L173.333,22L174.167,22L175,22L175.833,22L176.667,22L177.5,22L178.333,22L179.167,22L180,22L180.833,200L181.667,200L182.5,200L183.333,200L184.167,200L185,200L185.833,200L186.667,200L187.5,200L188.333,200L189.167,200L190,200L190.833,164L191.667,164L192.5,164L193.333,164L194.167,164L195,164L195.833,164L196.667,164L197.5,164L198.333,164L199.167,164L200,164L200.833,76L201.667,76L202.5,76L203.333,76L204.167,76L205,76L205.833,76L206.667,76L207.5,76L208.333,76L209.167,76L210,76L210.833,172L211.667,172L212.5,172L213.333,172L214.167,172L215,172L215.833,172L216.667,172L217.5,172L218.333,172L219.167,172L220,172L220.833,2L221.667,2L222.5,2L223.333,2L224.167,2L225,2L225.833,2L226.667,2L227.5,2L228.333,2L229.167,2L230,2L230.833,32L231.667,32L232.5,32L233.333,32L234.167,32L235,32L235.833,32L236.667,32L237.5,32L238.333,32L239.167,32L240,32L240.833,48L241.667,48L242.5,48L243.333,48L244.167,48L245,48L245.833,48L246.667,48L247.5,48L248.333,48L249.167,48L250,48L250.833,186L251.667,186L252.5,186L253.333,186L254.167,186L255,186L255.833,186L256.667,186L257.5,186L258.333,186L259.167,186L260,186L260.833,194L261.667,194L262.5,194L263.333,194L264.167,194L265,194L265.833,194L266.667,194L267.5,194L268.333,194L269.167,194L270,194L270.833,118L271.667,118L272.5,118L273.333,118L274.167,118L275,118L275.833,118L276.667,118L277.5,118L278.333,118L279.167,118L280,118L280.833,124L281.667,124L282.5,124L283.333,124L284.167,124L285,124L285.833,124L286.667,124L287.5,124L288.333,124L289.167,124L290,124L290.833,108L291.667,108L292.5,108L293.333,108L294.167,108L295,108L295.833,108L296.667,108L297.5,108L298.333,108L299.167,108L300,108L300.833,28L301.667,28L302.5,28L303.333,28L304.167,28L305,28L305.833,28L306.667,28L307.5,28L308.333,28L309.167,28L310,28L310.833,146L311.667,146L312.5,146L313.333,146L314.167,146L315,146L315.833,146L316.667,146L317.5,146L318.333,146L319.167,146L320,146L320.833,120L321.667,120L322.5,120L323.333,120L324.167,120L325,120L325.833,120L326.667,120L327.5,120L328.333,120L329.167,120L330,120L330.833,152L331.667,152L332.5,152L333.333,152L334.167,152L335,152L335.833,152L336.667,152L337.5,152L338.333,152L339.167,152L340,152L340.833,60L341.667,60L342.5,60L343.333,60L344.167,60L345,60L345.833,60L346.667,60L347.5,60L348.333,60L349.167,60L350,60L350.833,158L351.667,158L352.5,158L353.333,158L354.167,158L355,158L355.833,158L356.667,158L357.5,158L358.333,158L359.167,158L360,158L360.833,84L361.667,84L362.5,84L363.333,84L364.167,84L365,84L365.833,84L366.667,84L367.5,84L368.333,84L369.167,84L370,84L370.833,196L371.667,196L372.5,196L373.333,196L374.167,196L375,196L375.833,196L376.667,196L377.5,196L378.333,196L379.167,196L380,196L380.833,134L381.667,134L382.5,134L383.333,134L384.167,134L385,134L385.833,134L386.667,134L387.5,134L388.333,134L389.167,134L390,134L390.833,178L391.667,178L392.5,178L393.333,178L394.167,178L395,178L395.833,178L396.667,178L397.5,178L398.333,178L399.167,178L400,178L400.833,104L401.667,104L402.5,104L403.333,104L404.167,104L405,104L405.833,104L406.667,104L407.5,104L408.333,104L409.167,104L410,104L410.833,168L411.667,168L412.5,168L413.333,168L414.167,168L415,168L415.833,168L416.667,168L417.5,168L418.333,168L419.167,168L420,168L420.833,12L421.667,12L422.5,12L423.333,12L424.167,12L425,12L425.833,12L426.667,12L427.5,12L428.333,12L429.167,12L430,12L430.833,40L431.667,40L432.5,40L433.333,40L434.167,40L435,40L435.833,40L436.667,40L437.5,40L438.333,40L439.167,40L440,40L440.833,82L441.667,82L442.5,82L443.333,82L444.167,82L445,82L445.833,82L446.667,82L447.5,82L448.333,82L449.167,82L450,82L450.833,18L451.667,18L452.5,18L453.333,18L454.167,18L455,18L455.833,18L456.667,18L457.5,18L458.333,18L459.167,18L460,18L460.833,170L461.667,170L462.5,170L463.333,170L464.167,170L465,170L465.833,170L466.667,170L467.5,170L468.333,170L469.167,170L470,170L470.833,62L471.667,62L472.5,62L473.333,62L474.167,62L475,62L475.833,62L476.667,62L477.5,62L478.333,62L479.167,62L480,62L480.833,140L481.667,140L482.5,140L483.333,140L484.167,140L485,140L485.833,140L486.667,140L487.5,140L488.333,140L489.167,140L490,140L490.833,192L491.667,192L492.5,192L493.333,192L494.167,192L495,192L495.833,192L496.667,192L497.5,192L498.333,192L499.167,192L500,192" stroke="orange" stroke-width="2" opacity="0.7"/></g><g class="mark-line role-mark layer_1_marks" role="graphics-object" aria-roledescription="line mark container"><path aria-label="Time (seconds): 10; Power reading (mW): 3444.44688645" role="graphics-symbol" aria-roledescription="line mark" d="M0.833,85.185L1.667,68.03L2.5,58.83L3.333,73.737L4.167,91.345L5,117.612L5.833,92.145L6.667,91.726L7.5,94.015L8.333,92.852L9.167,83.863L10,88.026L10.833,108.353L11.667,119.6L12.5,124.1L13.333,143.497L14.167,116.819L15,118.574L15.833,124.937L16.667,116.026L17.5,105.793L18.333,124.063L19.167,119.503L20,118.683L20.833,114.933L21.667,55.692L22.5,58.681L23.333,66.833L24.167,80.892L25,82.1L25.833,73.729L26.667,81.763L27.5,84.637L28.333,58.74L29.167,80.17L30,79.67L30.833,117.998L31.667,131.834L32.5,133.96L33.333,132.378L34.167,133.004L35,133.341L35.833,133.178L36.667,132.759L37.5,131.141L38.333,122.607L39.167,130.467L40,131.511L40.833,134.222L41.667,135.722L42.5,144.548L43.333,136.304L44.167,111.452L45,134.348L45.833,135.559L46.667,144.13L47.5,134.685L48.333,135.641L49.167,135.93L50,114.452L50.833,91.45L51.667,85.107L52.5,90.596L53.333,86.352L54.167,64.492L55,54.118L55.833,87.411L56.667,85.911L57.5,88.318L58.333,86.863L59.167,86.318L60,59.466L60.833,84.27L61.667,87.433L62.5,83.77L63.333,86.933L64.167,65.2L65,83.722L65.833,87.841L66.667,84.222L67.5,81.015L68.333,91.537L69.167,84.756L70,65.431L70.833,99.561L71.667,168.805L72.5,133.141L73.333,126.941L74.167,134.104L75,131.022L75.833,133.811L76.667,122.159L77.5,130.485L78.333,132.485L79.167,130.822L80,132.567L80.833,59.909L81.667,79.614L82.5,74.403L83.333,80.637L84.167,73.263L85,58.274L85.833,78.415L86.667,76.659L87.5,78.111L88.333,50.726L89.167,46.425L90,77.633L90.833,101.065L91.667,120.693L92.5,133.519L93.333,121.704L94.167,122.041L95,122.122L95.833,124.667L96.667,120.796L97.5,136.993L98.333,122.889L99.167,124.389L100,100.492L100.833,121.259L101.667,115.178L102.5,114.722L103.333,115.178L104.167,114.967L105,92.989L105.833,111.967L106.667,115.63L107.5,116.13L108.333,112.967L109.167,112.967L110,96.361L110.833,107.048L111.667,110L112.5,106.337L113.333,106.081L114.167,105.37L115,108.533L115.833,82.892L116.667,108.696L117.5,105.533L118.333,109.196L119.167,106.033L120,106.033L120.833,80.648L121.667,70.521L122.5,98.811L123.333,102.507L124.167,98.889L125,99.1L125.833,99.344L126.667,73.492L127.5,95.633L128.333,99.052L129.167,100.007L130,100.296L130.833,46.095L131.667,62.084L132.5,64.6L133.333,65.052L134.167,69.878L135,53.97L135.833,68.574L136.667,67.818L137.5,44.874L138.333,62.641L139.167,65.059L140,65.015L140.833,77.979L141.667,91.311L142.5,71.357L143.333,102.237L144.167,91.196L145,89.322L145.833,90.578L146.667,92.289L147.5,90.126L148.333,47.414L149.167,89.822L150,91.322L150.833,93.334L151.667,124.071L152.5,108.259L153.333,95.896L154.167,107.385L155,103.525L155.833,94.224L156.667,106.689L157.5,108.433L158.333,105.815L159.167,103.363L160,107.77L160.833,94.63L161.667,119.482L162.5,121.982L163.333,120.574L164.167,126.448L165,118.204L165.833,119.481L166.667,93.686L167.5,121.122L168.333,122.867L169.167,124.156L170,118.085L170.833,72.932L171.667,70.029L172.5,46.28L173.333,71.558L174.167,70.844L175,68.055L175.833,72.381L176.667,70.381L177.5,61.055L178.333,73.196L179.167,49.796L180,67.774L180.833,140.056L181.667,141.064L182.5,138.042L183.333,141.089L184.167,140.008L185,119.156L185.833,135.308L186.667,142.226L187.5,139.111L188.333,141.867L189.167,137.752L190,150.741L190.833,120.762L191.667,123.004L192.5,122.504L193.333,122.004L194.167,121.504L195,124.667L195.833,121.004L196.667,102.189L197.5,121.411L198.333,124.619L199.167,121.667L200,121.911L200.833,91.675L201.667,65.53L202.5,88.889L203.333,93.459L204.167,91.248L205,92.911L205.833,91.411L206.667,61.095L207.5,88.141L208.333,90.804L209.167,90.304L210,93.467L210.833,120.839L211.667,104.126L212.5,119.778L213.333,126.441L214.167,122.371L215,143.397L215.833,126.419L216.667,124.511L217.5,126.222L218.333,93.779L219.167,129.229L220,126.722L220.833,94.79L221.667,63.995L222.5,64.355L223.333,11.258L224.167,64.059L225,64.466L225.833,65.407L226.667,62.485L227.5,31.169L228.333,60.878L229.167,63.041L230,65.948L230.833,64.038L231.667,78.822L232.5,76.415L233.333,77.626L234.167,49.566L235,75.659L235.833,81.055L236.667,74.108L237.5,74.785L238.333,75.496L239.167,54.263L240,70.111L240.833,77.948L241.667,79.159L242.5,79.915L243.333,81.37L244.167,63.6L245,81.359L245.833,77.575L246.667,82.159L247.5,79.252L248.333,87.533L249.167,77.833L250,59.518L250.833,100.506L251.667,131.312L252.5,172.168L253.333,129.189L254.167,133.656L255,130.797L255.833,108.867L256.667,149.16L257.5,132.682L258.333,131.274L259.167,129.822L260,134.985L260.833,119.67L261.667,133.822L262.5,135.078L263.333,136.789L264.167,134.626L265,139.289L265.833,111.485L266.667,130.963L267.5,135.37L268.333,132.252L269.167,136.626L270,137.626L270.833,96.113L271.667,105.166L272.5,109.281L273.333,92.874L274.167,110.641L275,106.222L275.833,107.93L276.667,107.629L277.5,69.577L278.333,107.533L279.167,107.533L280,107.533L280.833,108.033L281.667,89.963L282.5,105.322L283.333,109.441L284.167,109.485L285,110.441L285.833,110.485L286.667,114.859L287.5,88.021L288.333,104.512L289.167,109.23L290,109.485L290.833,104.148L291.667,103.437L292.5,103.67L293.333,80.071L294.167,102.633L295,106.296L295.833,103.133L296.667,103.133L297.5,106.796L298.333,78.481L299.167,103.619L300,104.574L300.833,87.991L301.667,74.647L302.5,70.97L303.333,35.025L304.167,63.022L305,71.255L305.833,73.207L306.667,76.115L307.5,68.322L308.333,73.693L309.167,48.251L310,69.47L310.833,118.555L311.667,115.963L312.5,116.812L313.333,95.848L314.167,111.711L315,117.886L315.833,132.797L316.667,119.237L317.5,114.622L318.333,115.878L319.167,117.833L320,104.226L320.833,105.47L321.667,108.633L322.5,109.122L323.333,108.456L324.167,86.933L325,105.456L325.833,105.911L326.667,109.119L327.5,109.83L328.333,110.574L329.167,106.956L330,89.828L330.833,111.571L331.667,116.9L332.5,128.69L333.333,120.878L334.167,118.926L335,116.507L335.833,94.818L336.667,125.041L337.5,119.926L338.333,117.263L339.167,121.426L340,118.763L340.833,51.875L341.667,85.6L342.5,86.54L343.333,83.374L344.167,84.992L345,50.547L345.833,83.707L346.667,82.707L347.5,81.952L348.333,84.159L349.167,87.778L350,80.241L350.833,100.938L351.667,118.201L352.5,122.845L353.333,142.175L354.167,119.337L355,121.804L355.833,120.852L356.667,119.189L357.5,98.711L358.333,129.934L359.167,122.4L360,119.782L360.833,115.155L361.667,53.195L362.5,91.926L363.333,93.378L364.167,95.541L365,95.029L365.833,89.944L366.667,70.374L367.5,91.804L368.333,91.304L369.167,90.804L370,94.211L370.833,125.758L371.667,135.153L372.5,114.722L373.333,115.978L374.167,157.494L375,131.704L375.833,137.834L376.667,133.719L377.5,135.719L378.333,133.811L379.167,124.778L380,135.311L380.833,124.359L381.667,112.448L382.5,103.61L383.333,89.444L384.167,110.374L385,113.037L385.833,112.781L386.667,115.733L387.5,108.407L388.333,114.733L389.167,93.244L390,107.893L390.833,129.382L391.667,124.945L392.5,130.319L393.333,128.656L394.167,129.911L395,102.563L395.833,136.482L396.667,127.748L397.5,128.959L398.333,126.296L399.167,130.215L400,106.029L400.833,105.295L401.667,102.196L402.5,103.148L403.333,101.392L404.167,92.1L405,78.388L405.833,84.455L406.667,103.433L407.5,99.77L408.333,102.933L409.167,103.178L410,102.722L410.833,102.93L411.667,122.134L412.5,142.927L413.333,123.419L414.167,125.419L415,123.756L415.833,125.011L416.667,108.407L417.5,125.722L418.333,123.559L419.167,124.559L420,125.315L420.833,51.336L421.667,65.623L422.5,68.492L423.333,67.466L424.167,69.659L425,44.914L425.833,67.329L426.667,46.792L427.5,63.592L428.333,69.44L429.167,60.237L430,65.774L430.833,74.775L431.667,54.207L432.5,73.507L433.333,84.297L434.167,75.73L435,79.648L435.833,77.196L436.667,77.696L437.5,60.126L438.333,76.23L439.167,77.951L440,76.175L440.833,81.371L441.667,107.945L442.5,72.818L443.333,89.434L444.167,95.019L445,93.356L445.833,101.937L446.667,93.415L447.5,94.626L448.333,70.718L449.167,89.319L450,93.448L450.833,75.369L451.667,69.14L452.5,70.126L453.333,72.066L454.167,37.421L455,68.085L455.833,70.537L456.667,70.281L457.5,69.57L458.333,72.733L459.167,44.162L460,68.589L460.833,95.418L461.667,122.983L462.5,162.361L463.333,127.053L464.167,102.715L465,107.589L465.833,123.497L466.667,126.719L467.5,137.723L468.333,124.119L469.167,125.874L470,124.178L470.833,73.476L471.667,80.863L472.5,88.584L473.333,85.452L474.167,83.196L475,88.055L475.833,75.6L476.667,65.795L477.5,79.478L478.333,88.967L479.167,85.548L480,84.837L480.833,103.928L481.667,93.951L482.5,107.949L483.333,136.234L484.167,113.108L485,115.319L485.833,117.074L486.667,111.715L487.5,94.855L488.333,118.541L489.167,117.089L490,114.682L490.833,120.067L491.667,150.805L492.5,112.77L493.333,130.341L494.167,132.308L495,134.519L495.833,132.856L496.667,141.193L497.5,136.789L498.333,109.229L499.167,117.507L500,134.822" stroke="#4c78a8" stroke-width="2"/></g></g><path class="foreground" aria-hidden="true" d="" display="none"/></g></g></g></svg>